<?xml version="1.0" encoding="UTF-8" standalone="no"?>
<!-- Created with Inkscape (http://www.inkscape.org/) -->

<svg
   width="237.12964mm"
   height="35.051998mm"
   viewBox="0 0 237.12964 35.051998"
   version="1.1"
   id="svg8"
   inkscape:version="1.2.2 (732a01da63, 2022-12-09)"
   sodipodi:docname="minsony-logo.svg"
   xmlns:inkscape="http://www.inkscape.org/namespaces/inkscape"
   xmlns:sodipodi="http://sodipodi.sourceforge.net/DTD/sodipodi-0.dtd"
   xmlns="http://www.w3.org/2000/svg"
   xmlns:svg="http://www.w3.org/2000/svg"
   xmlns:rdf="http://www.w3.org/1999/02/22-rdf-syntax-ns#"
   xmlns:cc="http://creativecommons.org/ns#"
   xmlns:dc="http://purl.org/dc/elements/1.1/">
  <defs
     id="defs2" />
  <sodipodi:namedview
     id="base"
     pagecolor="#ffffff"
     bordercolor="#666666"
     borderopacity="1.0"
     inkscape:pageopacity="0.0"
     inkscape:pageshadow="2"
     inkscape:zoom="0.43569041"
     inkscape:cx="703.48117"
     inkscape:cy="148.0409"
     inkscape:document-units="mm"
     inkscape:current-layer="layer1"
     showgrid="false"
     inkscape:window-width="1920"
     inkscape:window-height="991"
     inkscape:window-x="-9"
     inkscape:window-y="-9"
     inkscape:window-maximized="1"
     inkscape:showpageshadow="2"
     inkscape:pagecheckerboard="0"
     inkscape:deskcolor="#d1d1d1" />
  <metadata
     id="metadata5">
    <rdf:RDF>
      <cc:Work
         rdf:about="">
        <dc:format>image/svg+xml</dc:format>
        <dc:type
           rdf:resource="http://purl.org/dc/dcmitype/StillImage" />
      </cc:Work>
    </rdf:RDF>
  </metadata>
  <g
     inkscape:label="Layer 1"
     inkscape:groupmode="layer"
     id="layer1"
     transform="translate(22.49593,-38.03974)">
    <text
       xml:space="preserve"
       style="font-style:normal;font-variant:normal;font-weight:normal;font-stretch:normal;font-size:50.8px;line-height:1.25;font-family:'Proxima Nova';-inkscape-font-specification:'Proxima Nova';letter-spacing:0px;word-spacing:0px;fill:#000000;fill-opacity:1;stroke:none;stroke-width:0.264583"
       x="18.142857"
       y="82.309517"
       id="text817" />
    <path
       d="M 10.676469,72.48214 V 38.59854 H 4.6312694 L -5.9351305,64.10014 -16.45073,38.59854 h -6.0452 v 33.8836 h 4.2164 v -27.8892 l 11.4807996,27.8892 h 1.7271999 L 6.4600694,44.59294 v 27.8892 z"
       style="font-style:normal;font-variant:normal;font-weight:normal;font-stretch:normal;font-size:50.8px;line-height:1.25;font-family:'Proxima Nova';-inkscape-font-specification:'Proxima Nova';letter-spacing:2.64583px;word-spacing:0px;fill:#ffffff;fill-opacity:1;stroke:none;stroke-width:0.264583"
       id="path835" />
    <path
       d="m 25.442863,72.48214 v -33.8836 h -4.2164 v 33.8836 z"
       style="font-style:normal;font-variant:normal;font-weight:normal;font-stretch:normal;font-size:50.8px;line-height:1.25;font-family:'Proxima Nova';-inkscape-font-specification:'Proxima Nova';letter-spacing:2.64583px;word-spacing:0px;fill:#ffffff;fill-opacity:1;stroke:none;stroke-width:0.264583"
       id="path837" />
    <path
       d="m 64.018585,72.48214 v -33.8836 h -4.2164 v 26.4668 l -19.5072,-26.4668 h -4.318 v 33.8836 h 4.2164 v -27.0256 l 19.7612,27.0256 z"
       style="font-style:normal;font-variant:normal;font-weight:normal;font-stretch:normal;font-size:50.8px;line-height:1.25;font-family:'Proxima Nova';-inkscape-font-specification:'Proxima Nova';letter-spacing:2.64583px;word-spacing:0px;fill:#ffffff;fill-opacity:1;stroke:none;stroke-width:0.264583"
       id="path839" />
    <path
       d="m 85.612024,73.09174 c 9.144,0 12.4968,-5.0292 12.4968,-9.9568 0,-12.6492 -20.066,-8.2804 -20.066,-15.9004 0,-3.2004 2.8956,-5.3848 6.9596,-5.3848 3.7084,0 7.2644,1.27 9.8044,4.064 l 2.54,-3.0988 c -2.8448,-2.9972 -6.858,-4.7244 -12.0396,-4.7244 -6.6548,0 -11.633199,3.81 -11.633199,9.398 0,12.0904 20.065999,7.2644 20.065999,16.002 0,2.5908 -1.9304,5.842 -7.9756,5.842 -4.7752,0 -8.4328,-2.3368 -10.667999,-4.826 l -2.4892,3.2004 c 2.793999,3.1496 7.111999,5.3848 13.004799,5.3848 z"
       style="font-style:normal;font-variant:normal;font-weight:normal;font-stretch:normal;font-size:50.8px;line-height:1.25;font-family:'Proxima Nova';-inkscape-font-specification:'Proxima Nova';letter-spacing:2.64583px;word-spacing:0px;fill:#ffffff;fill-opacity:1;stroke:none;stroke-width:0.264583"
       id="path841" />
    <path
       d="m 122.49389,73.09174 c 10.0076,0 16.81479,-7.5184 16.81479,-17.526 0,-10.0076 -6.80719,-17.526 -16.81479,-17.526 -10.0584,0 -16.8148,7.5184 -16.8148,17.526 0,10.0076 6.7564,17.526 16.8148,17.526 z m 0,-3.7592 c -7.62,0 -12.446,-5.8928 -12.446,-13.7668 0,-7.9248 4.826,-13.7668 12.446,-13.7668 7.5692,0 12.44599,5.842 12.44599,13.7668 0,7.874 -4.87679,13.7668 -12.44599,13.7668 z"
       style="font-style:normal;font-variant:normal;font-weight:normal;font-stretch:normal;font-size:50.8px;line-height:1.25;font-family:'Proxima Nova';-inkscape-font-specification:'Proxima Nova';letter-spacing:2.64583px;word-spacing:0px;fill:#ffffff;fill-opacity:1;stroke:none;stroke-width:0.264583"
       id="path843" />
    <path
       d="m 176.63187,72.48214 v -33.8836 h -4.2164 v 26.4668 l -19.5072,-26.4668 h -4.318 v 33.8836 h 4.2164 v -27.0256 l 19.7612,27.0256 z"
       style="font-style:normal;font-variant:normal;font-weight:normal;font-stretch:normal;font-size:50.8px;line-height:1.25;font-family:'Proxima Nova';-inkscape-font-specification:'Proxima Nova';letter-spacing:2.64583px;word-spacing:0px;fill:#ffffff;fill-opacity:1;stroke:none;stroke-width:0.264583"
       id="path845" />
    <path
       d="m 201.32411,72.48214 v -14.3256 l 13.3096,-19.558 h -4.9276 l -10.5156,15.748 -10.5156,-15.748 h -4.9276 l 13.3604,19.558 v 14.3256 z"
       style="font-style:normal;font-variant:normal;font-weight:normal;font-stretch:normal;font-size:50.8px;line-height:1.25;font-family:'Proxima Nova';-inkscape-font-specification:'Proxima Nova';letter-spacing:2.64583px;word-spacing:0px;fill:#ffffff;fill-opacity:1;stroke:none;stroke-width:0.264583"
       id="path847" />
  </g>
</svg>
